# xmcd
#
# Track frame offsets:
#	150
#	13725
#	29960
#
# Disc length: 593 seconds
#
# Revision: 0
# Processed by: cddbd v1.5.2PL0 Copyright (c) Steve Scherf et al.
# Submitted via: audiograbber 1.83.01
#
DISCID=23024f03
DTITLE=Neil Diamond - Cracklin' Rosie
DYEAR=1900
DGENRE=
TTITLE0=Cracklin' Rosie
TTITLE1=I Am I Said
TTITLE2=Song Sung Blue
EXTD=
EXTT0=
EXTT1=
EXTT2=
PLAYORDER=
